999
Colour
0
SECTION
2
HEADER
9
$ACADVER
1
AC1006
9
$INSBASE
10
0.0
20
0.0
30
0.0
9
$EXTMIN
10
0.0
20
0.0
9
$EXTMAX
10
1000.0
20
1000.0
9
$LIMMIN
10
0.0
20
0.0
9
$LIMMAX
10
1000.0
20
1000.0
0
ENDSEC
0
SECTION
2
ENTITIES
999
THIS IS COLOUR 1
0
LINE
8
1
62
1
10
0
20
0
30
0
11
0
21
10
31
0
999
THIS IS COLOUR 2
0
LINE
8
1
62
2
10
1
20
0
30
0
11
1
21
10
31
0
999
THIS IS COLOUR 3
0
LINE
8
1
62
3
10
2
20
0
30
0
11
2
21
10
31
0
999
THIS IS COLOUR 4
0
LINE
8
1
62
4
10
3
20
0
30
0
11
3
21
10
31
0
999
THIS IS COLOUR 5
0
LINE
8
1
62
5
10
4
20
0
30
0
11
4
21
10
31
0
999
THIS IS COLOUR 6
0
LINE
8
1
62
6
10
5
20
0
30
0
11
5
21
10
31
0
999
THIS IS COLOUR 7
0
LINE
8
1
62
7
10
6
20
0
30
0
11
6
21
10
31
0
999
THIS IS COLOUR 8
0
LINE
8
1
62
8
10
7
20
0
30
0
11
7
21
10
31
0
999
THIS IS COLOUR 9
0
LINE
8
1
62
9
10
8
20
0
30
0
11
8
21
10
31
0
999
THIS IS COLOUR 10
0
LINE
8
1
62
10
10
9
20
0
30
0
11
9
21
10
31
0
999
THIS IS COLOUR 11
0
LINE
8
1
62
11
10
10
20
0
30
0
11
10
21
10
31
0
999
THIS IS COLOUR 12
0
LINE
8
1
62
12
10
11
20
0
30
0
11
11
21
10
31
0
999
THIS IS COLOUR 13
0
LINE
8
1
62
13
10
12
20
0
30
0
11
12
21
10
31
0
999
THIS IS COLOUR 14
0
LINE
8
1
62
14
10
13
20
0
30
0
11
13
21
10
31
0
999
THIS IS COLOUR 15
0
LINE
8
1
62
15
10
14
20
0
30
0
11
14
21
10
31
0
999
THIS IS COLOUR 16
0
LINE
8
1
62
16
10
15
20
0
30
0
11
15
21
10
31
0
999
THIS IS COLOUR 17
0
LINE
8
1
62
17
10
16
20
0
30
0
11
16
21
10
31
0
999
THIS IS COLOUR 18
0
LINE
8
1
62
18
10
17
20
0
30
0
11
17
21
10
31
0
999
THIS IS COLOUR 19
0
LINE
8
1
62
19
10
18
20
0
30
0
11
18
21
10
31
0
999
THIS IS COLOUR 20
0
LINE
8
1
62
20
10
19
20
0
30
0
11
19
21
10
31
0
0
ENDSEC
0
EOF